<mxfile host="app.diagrams.net" modified="2021-08-10T01:28:23.611Z" agent="5.0 (Windows NT 10.0; Win64; x64) AppleWebKit/537.36 (KHTML, like Gecko) Chrome/92.0.4515.131 Safari/537.36" etag="lI0u8CdIcu10dFNfxMwj" version="14.9.5" type="github">
  <diagram id="AUwv0u2xf1qDrA2t1rAi" name="Page-1">
    <mxGraphModel dx="1209" dy="562" grid="1" gridSize="10" guides="1" tooltips="1" connect="1" arrows="1" fold="1" page="1" pageScale="1" pageWidth="850" pageHeight="1100" math="0" shadow="0">
      <root>
        <mxCell id="0" />
        <mxCell id="1" parent="0" />
        <mxCell id="Q0KUQg-uL6mfxQ4lGSY--1" value="/" style="rounded=1;whiteSpace=wrap;html=1;fontSize=30;" vertex="1" parent="1">
          <mxGeometry x="340" y="110" width="120" height="60" as="geometry" />
        </mxCell>
        <mxCell id="Q0KUQg-uL6mfxQ4lGSY--2" value="" style="line;strokeWidth=2;html=1;fontSize=30;" vertex="1" parent="1">
          <mxGeometry x="40" y="238" width="760" height="10" as="geometry" />
        </mxCell>
        <mxCell id="Q0KUQg-uL6mfxQ4lGSY--3" value="" style="endArrow=classic;html=1;fontSize=30;exitX=0.581;exitY=1.028;exitDx=0;exitDy=0;exitPerimeter=0;" edge="1" parent="1">
          <mxGeometry width="50" height="50" relative="1" as="geometry">
            <mxPoint x="400.72" y="171.67999999999995" as="sourcePoint" />
            <mxPoint x="401.2109971060247" y="240" as="targetPoint" />
          </mxGeometry>
        </mxCell>
        <mxCell id="Q0KUQg-uL6mfxQ4lGSY--5" value="/BIN" style="rounded=1;whiteSpace=wrap;html=1;fontSize=15;" vertex="1" parent="1">
          <mxGeometry x="80" y="330" width="80" height="60" as="geometry" />
        </mxCell>
        <mxCell id="Q0KUQg-uL6mfxQ4lGSY--6" value="/DIV" style="rounded=1;whiteSpace=wrap;html=1;fontSize=15;" vertex="1" parent="1">
          <mxGeometry x="210" y="330" width="80" height="60" as="geometry" />
        </mxCell>
        <mxCell id="Q0KUQg-uL6mfxQ4lGSY--7" value="/BOOT&lt;span style=&quot;color: rgba(0 , 0 , 0 , 0) ; font-family: monospace ; font-size: 0px&quot;&gt;%3CmxGraphModel%3E%3Croot%3E%3CmxCell%20id%3D%220%22%2F%3E%3CmxCell%20id%3D%221%22%20parent%3D%220%22%2F%3E%3CmxCell%20id%3D%222%22%20value%3D%22%2FDIV%22%20style%3D%22rounded%3D1%3BwhiteSpace%3Dwrap%3Bhtml%3D1%3BfontSize%3D15%3B%22%20vertex%3D%221%22%20parent%3D%221%22%3E%3CmxGeometry%20x%3D%22160%22%20y%3D%22330%22%20width%3D%2280%22%20height%3D%2260%22%20as%3D%22geometry%22%2F%3E%3C%2FmxCell%3E%3C%2Froot%3E%3C%2FmxGraphModel%3E&lt;/span&gt;" style="rounded=1;whiteSpace=wrap;html=1;fontSize=15;" vertex="1" parent="1">
          <mxGeometry x="330" y="330" width="80" height="60" as="geometry" />
        </mxCell>
        <mxCell id="Q0KUQg-uL6mfxQ4lGSY--8" value="/HOME" style="rounded=1;whiteSpace=wrap;html=1;fontSize=15;" vertex="1" parent="1">
          <mxGeometry x="440" y="330" width="80" height="60" as="geometry" />
        </mxCell>
        <mxCell id="Q0KUQg-uL6mfxQ4lGSY--9" value="/ETC" style="rounded=1;whiteSpace=wrap;html=1;fontSize=15;" vertex="1" parent="1">
          <mxGeometry x="560" y="330" width="80" height="60" as="geometry" />
        </mxCell>
        <mxCell id="Q0KUQg-uL6mfxQ4lGSY--10" value="/USR" style="rounded=1;whiteSpace=wrap;html=1;fontSize=15;" vertex="1" parent="1">
          <mxGeometry x="680" y="330" width="80" height="60" as="geometry" />
        </mxCell>
        <mxCell id="Q0KUQg-uL6mfxQ4lGSY--11" value="" style="endArrow=classic;html=1;fontSize=15;entryX=0.5;entryY=0;entryDx=0;entryDy=0;" edge="1" parent="1">
          <mxGeometry width="50" height="50" relative="1" as="geometry">
            <mxPoint x="120" y="248" as="sourcePoint" />
            <mxPoint x="120" y="328" as="targetPoint" />
          </mxGeometry>
        </mxCell>
        <mxCell id="Q0KUQg-uL6mfxQ4lGSY--12" value="" style="endArrow=classic;html=1;fontSize=15;entryX=0.5;entryY=0;entryDx=0;entryDy=0;" edge="1" parent="1">
          <mxGeometry width="50" height="50" relative="1" as="geometry">
            <mxPoint x="251" y="252" as="sourcePoint" />
            <mxPoint x="251" y="332" as="targetPoint" />
          </mxGeometry>
        </mxCell>
        <mxCell id="Q0KUQg-uL6mfxQ4lGSY--13" value="" style="endArrow=classic;html=1;fontSize=15;entryX=0.5;entryY=0;entryDx=0;entryDy=0;" edge="1" parent="1">
          <mxGeometry width="50" height="50" relative="1" as="geometry">
            <mxPoint x="369.5" y="250" as="sourcePoint" />
            <mxPoint x="369.5" y="330" as="targetPoint" />
          </mxGeometry>
        </mxCell>
        <mxCell id="Q0KUQg-uL6mfxQ4lGSY--14" value="" style="endArrow=classic;html=1;fontSize=15;entryX=0.5;entryY=0;entryDx=0;entryDy=0;" edge="1" parent="1">
          <mxGeometry width="50" height="50" relative="1" as="geometry">
            <mxPoint x="479.5" y="250" as="sourcePoint" />
            <mxPoint x="479.5" y="330" as="targetPoint" />
          </mxGeometry>
        </mxCell>
        <mxCell id="Q0KUQg-uL6mfxQ4lGSY--15" value="" style="endArrow=classic;html=1;fontSize=15;exitX=0.74;exitY=0.211;exitDx=0;exitDy=0;exitPerimeter=0;entryX=0.5;entryY=0;entryDx=0;entryDy=0;" edge="1" parent="1" source="Q0KUQg-uL6mfxQ4lGSY--2" target="Q0KUQg-uL6mfxQ4lGSY--9">
          <mxGeometry width="50" height="50" relative="1" as="geometry">
            <mxPoint x="525.5" y="260" as="sourcePoint" />
            <mxPoint x="610" y="320" as="targetPoint" />
            <Array as="points" />
          </mxGeometry>
        </mxCell>
        <mxCell id="Q0KUQg-uL6mfxQ4lGSY--16" value="" style="endArrow=classic;html=1;fontSize=15;" edge="1" parent="1">
          <mxGeometry width="50" height="50" relative="1" as="geometry">
            <mxPoint x="730" y="250" as="sourcePoint" />
            <mxPoint x="730" y="320" as="targetPoint" />
            <Array as="points">
              <mxPoint x="730" y="300" />
            </Array>
          </mxGeometry>
        </mxCell>
      </root>
    </mxGraphModel>
  </diagram>
</mxfile>
